<svg xmlns="http://www.w3.org/2000/svg" width="20" height="16" viewBox="0 0 20 16">
  <g fill="none" fill-rule="evenodd" transform="translate(0 -2)">
    <rect width="20" height="20"/>
    <path fill="#000000" fill-rule="nonzero" d="M8.25,3.515625 L6.75,3.515625 L6.75,1.953125 L8.25,1.953125 L8.25,3.515625 L8.25,3.515625 Z M8.25,7.03125 L6.75,7.03125 L6.75,5.46875 L8.25,5.46875 L8.25,7.03125 L8.25,7.03125 Z M8.25,10.546875 L6.75,10.546875 L6.75,8.984375 L8.25,8.984375 L8.25,10.546875 L8.25,10.546875 Z M15,4.6875 L15,1.5625 C15,0.6953125 14.325,0 13.5,0 L1.5,0 C0.671572875,0 0,0.699555078 0,1.5625 L0,4.6875 C0.8325,4.6875 1.5,5.390625 1.5,6.25 C1.5,7.11294492 0.828427125,7.8125 0,7.8125 L0,10.9375 C0,11.8004449 0.671572875,12.5 1.5,12.5 L13.5,12.5 C14.3284271,12.5 15,11.8004449 15,10.9375 L15,7.8125 C14.1715729,7.8125 13.5,7.11294492 13.5,6.25 C13.5,5.38705508 14.1715729,4.6875 15,4.6875 Z" transform="translate(2.5 3.75)"/>
  </g>
</svg>
