<svg xmlns="http://www.w3.org/2000/svg" width="25" height="25" viewBox="0 0 25 25">
  <g fill="#000000" transform="translate(4 4)">
    <path d="M13,8.66140916 L13,0.866482051 C13,0.388893519 12.6109215,0 12.1331058,0 L0.866894198,0 C0.385665529,0 0,0.388893519 0,0.866482051 L0,12.6526848 C0,12.9597059 0.372013652,13.1166279 0.590443686,12.8983017 L3.36518771,9.63023161 C3.43003413,9.56541603 3.51877133,9.52789121 3.6109215,9.52789121 L12.1331058,9.52789121 C12.6109215,9.52789121 13,9.13899769 13,8.66140916 Z"/>
    <path d="M17.1331058,4 L15.3993174,4 L15.3993174,8.33103297 C15.3993174,9.76334309 14.2320819,10.9296528 12.7986348,10.9296528 L5,10.9296528 L5,12.6620659 C5,13.1395027 5.3890785,13.5282725 5.8668942,13.5282725 L14.3890785,13.5282725 C14.4812287,13.5282725 14.5699659,13.5657854 14.6348123,13.6305804 L17.4095563,16.8976116 C17.6279863,17.1158684 18,16.9624066 18,16.6520727 L18,4.86620659 C18,4.38535963 17.6143345,4 17.1331058,4 Z"/>
  </g>
</svg>
