<svg xmlns="http://www.w3.org/2000/svg" width="16" height="16" viewBox="0 0 16 16">
  <g fill="none" fill-rule="evenodd">
    <rect width="16" height="16"/>
    <path fill="#000000" fill-rule="nonzero" d="M6.76923077,2.76923077 L5.53846154,2.76923077 L5.53846154,1.53846154 L6.76923077,1.53846154 L6.76923077,2.76923077 L6.76923077,2.76923077 Z M6.76923077,5.53846154 L5.53846154,5.53846154 L5.53846154,4.30769231 L6.76923077,4.30769231 L6.76923077,5.53846154 L6.76923077,5.53846154 Z M6.76923077,8.30769231 L5.53846154,8.30769231 L5.53846154,7.07692308 L6.76923077,7.07692308 L6.76923077,8.30769231 L6.76923077,8.30769231 Z M12.3076923,3.69230769 L12.3076923,1.23076923 C12.3076923,0.547692308 11.7538462,0 11.0769231,0 L1.23076923,0 C0.551034154,0 0,0.551034154 0,1.23076923 L0,3.69230769 C0.683076923,3.69230769 1.23076923,4.24615385 1.23076923,4.92307692 C1.23076923,5.602812 0.679735077,6.15384615 0,6.15384615 L0,8.61538462 C0,9.29511969 0.551034154,9.84615385 1.23076923,9.84615385 L11.0769231,9.84615385 C11.7566582,9.84615385 12.3076923,9.29511969 12.3076923,8.61538462 L12.3076923,6.15384615 C11.6279572,6.15384615 11.0769231,5.602812 11.0769231,4.92307692 C11.0769231,4.24334185 11.6279572,3.69230769 12.3076923,3.69230769 Z" transform="translate(1.846 3.077)"/>
  </g>
</svg>
