<svg xmlns="http://www.w3.org/2000/svg" width="16" height="16" viewBox="0 0 16 16">
  <g fill="none" fill-rule="evenodd">
    <polygon points="0 0 16 0 16 16 0 16"/>
    <path fill="#000000" fill-rule="nonzero" d="M10.6666667,8.33333333 C11.7733333,8.33333333 12.66,7.44 12.66,6.33333333 C12.66,5.22666667 11.7733333,4.33333333 10.6666667,4.33333333 C9.56,4.33333333 8.66666667,5.22666667 8.66666667,6.33333333 C8.66666667,7.44 9.56,8.33333333 10.6666667,8.33333333 Z M5.33333333,8.33333333 C6.44,8.33333333 7.32666667,7.44 7.32666667,6.33333333 C7.32666667,5.22666667 6.44,4.33333333 5.33333333,4.33333333 C4.22666667,4.33333333 3.33333333,5.22666667 3.33333333,6.33333333 C3.33333333,7.44 4.22666667,8.33333333 5.33333333,8.33333333 Z M5.33333333,9.66666667 C3.78,9.66666667 0.666666667,10.4466667 0.666666667,12 L0.666666667,13.6666667 L10,13.6666667 L10,12 C10,10.4466667 6.88666667,9.66666667 5.33333333,9.66666667 Z M10.6666667,9.66666667 C10.4733333,9.66666667 10.2533333,9.68 10.02,9.7 C10.7933333,10.26 11.3333333,11.0133333 11.3333333,12 L11.3333333,13.6666667 L15.3333333,13.6666667 L15.3333333,12 C15.3333333,10.4466667 12.22,9.66666667 10.6666667,9.66666667 Z"/>
  </g>
</svg>
