<svg xmlns="http://www.w3.org/2000/svg" width="16" height="16" viewBox="0 0 16 16">
  <g fill="none" fill-rule="evenodd">
    <rect width="16" height="16"/>
    <path fill="#1D1D1D" fill-rule="nonzero" d="M0,5.33333333 L1.33333333,5.33333333 L1.33333333,6.66666667 L0,6.66666667 L0,5.33333333 L0,5.33333333 Z M5.33333333,1.33333333 L6.66666667,1.33333333 L6.66666667,4 L5.33333333,4 L5.33333333,1.33333333 L5.33333333,1.33333333 Z M4,5.33333333 L6.66666667,5.33333333 L6.66666667,8 L5.33333333,8 L5.33333333,6.66666667 L4,6.66666667 L4,5.33333333 L4,5.33333333 Z M8,5.33333333 L9.33333333,5.33333333 L9.33333333,6.66666667 L10.6666667,6.66666667 L10.6666667,5.33333333 L12,5.33333333 L12,6.66666667 L10.6666667,6.66666667 L10.6666667,8 L12,8 L12,10.6666667 L10.6666667,10.6666667 L10.6666667,12 L9.33333333,12 L9.33333333,10.6666667 L6.66666667,10.6666667 L6.66666667,12 L5.33333333,12 L5.33333333,9.33333333 L8,9.33333333 L8,8 L9.33333333,8 L9.33333333,6.66666667 L8,6.66666667 L8,5.33333333 L8,5.33333333 Z M10.6666667,10.6666667 L10.6666667,8 L9.33333333,8 L9.33333333,10.6666667 L10.6666667,10.6666667 L10.6666667,10.6666667 Z M8,0 L12,0 L12,4 L8,4 L8,0 L8,0 Z M9.33333333,1.33333333 L9.33333333,2.66666667 L10.6666667,2.66666667 L10.6666667,1.33333333 L9.33333333,1.33333333 L9.33333333,1.33333333 Z M0,0 L4,0 L4,4 L0,4 L0,0 L0,0 Z M1.33333333,1.33333333 L1.33333333,2.66666667 L2.66666667,2.66666667 L2.66666667,1.33333333 L1.33333333,1.33333333 L1.33333333,1.33333333 Z M0,8 L4,8 L4,12 L0,12 L0,8 L0,8 Z M1.33333333,9.33333333 L1.33333333,10.6666667 L2.66666667,10.6666667 L2.66666667,9.33333333 L1.33333333,9.33333333 Z" transform="translate(2 2)"/>
  </g>
</svg>
