<?xml version="1.0" encoding="UTF-8"?>
<svg width="14px" height="14px" viewBox="0 0 14 14" version="1.1" xmlns="http://www.w3.org/2000/svg" xmlns:xlink="http://www.w3.org/1999/xlink">
    <!-- Generator: Sketch 42 (36781) - http://www.bohemiancoding.com/sketch -->
    <title>icon_web</title>
    <desc>Created with Sketch.</desc>
    <defs></defs>
    <g id="Create-Event" stroke="none" stroke-width="1" fill="none" fill-rule="evenodd">
        <g id="4.0.0-profile_organiser_complete" transform="translate(-159.000000, -1395.000000)">
            <g id="icon_web" transform="translate(158.000000, 1394.000000)">
                <g id="web" transform="translate(1.600000, 1.600000)">
                    <path d="M6.4,2.84217094e-16 C2.8608,2.84217094e-16 0,2.88 0,6.4 C-1.42108547e-16,8.09738553 0.674283778,9.72525058 1.8745166,10.9254834 C3.07474942,12.1257162 4.70261447,12.8 6.4,12.8 C9.9346224,12.8 12.8,9.9346224 12.8,6.4 C12.8,4.70261447 12.1257162,3.07474942 10.9254834,1.8745166 C9.72525058,0.674283778 8.09738553,1.42108547e-16 6.4,0 L6.4,2.84217094e-16 Z" id="Path" fill="#1D1D1D"></path>
                    <path d="M9.1904,7.68 C9.2416,7.2576 9.28,6.8352 9.28,6.4 C9.28,5.9648 9.2416,5.5424 9.1904,5.12 L11.3536,5.12 C11.456,5.5296 11.52,5.9584 11.52,6.4 C11.52,6.8416 11.456,7.2704 11.3536,7.68 L9.1904,7.68 Z" id="Path" stroke="#1D1D1D" fill="#FFFFFF"></path>
                    <path d="M8.0576,11.2384 C8.4416,10.528 8.736,9.76 8.9408,8.96 L10.8288,8.96 C10.2144,10.016 9.2352,10.8352 8.0576,11.2384 L8.0576,11.2384 Z" id="Path" stroke="#1D1D1D" stroke-width="0.5" fill="#FFFFFF"></path>
                    <path d="M7.8976,7.68 L4.9024,7.68 C4.8384,7.2576 4.8,6.8352 4.8,6.4 C4.8,5.9648 4.8384,5.536 4.9024,5.12 L7.8976,5.12 C7.9552,5.536 8,5.9648 8,6.4 C8,6.8352 7.9552,7.2576 7.8976,7.68 L7.8976,7.68 Z" id="Path" stroke="#1D1D1D" stroke-width="0.5" fill="#FFFFFF"></path>
                    <path d="M6.4,11.4944 C5.8688,10.7264 5.44,9.8752 5.1776,8.96 L7.6224,8.96 C7.36,9.8752 6.9312,10.7264 6.4,11.4944 L6.4,11.4944 Z" id="Path" stroke="#1D1D1D" stroke-width="0.5" fill="#FFFFFF"></path>
                    <path d="M3.84,3.84 L1.9712,3.84 C2.5792,2.7776 3.5648,1.9584 4.736,1.5616 C4.352,2.272 4.064,3.04 3.84,3.84 L3.84,3.84 Z" id="Path" stroke="#1D1D1D" stroke-width="0.5" fill="#FFFFFF"></path>
                    <path d="M1.9712,8.96 L3.84,8.96 C4.064,9.76 4.352,10.528 4.736,11.2384 C3.5648,10.8352 2.5792,10.016 1.9712,8.96 L1.9712,8.96 Z" id="Path" stroke="#1D1D1D" stroke-width="0.5" fill="#FFFFFF"></path>
                    <path d="M1.4464,7.68 C1.344,7.2704 1.28,6.8416 1.28,6.4 C1.28,5.9584 1.344,5.5296 1.4464,5.12 L3.6096,5.12 C3.5584,5.5424 3.52,5.9648 3.52,6.4 C3.52,6.8352 3.5584,7.2576 3.6096,7.68 L1.4464,7.68 Z" id="Path" stroke="#1D1D1D" stroke-width="0.5" fill="#FFFFFF"></path>
                    <path d="M6.4,1.2992 C6.9312,2.0672 7.36,2.9248 7.6224,3.84 L5.1776,3.84 C5.44,2.9248 5.8688,2.0672 6.4,1.2992 L6.4,1.2992 Z" id="Path" stroke="#1D1D1D" stroke-width="0.5" fill="#FFFFFF"></path>
                    <path d="M10.8288,3.84 L8.9408,3.84 C8.736,3.04 8.4416,2.272 8.0576,1.5616 C9.2352,1.9648 10.2144,2.7776 10.8288,3.84 L10.8288,3.84 Z" id="Path" stroke="#1D1D1D" stroke-width="0.5" fill="#FFFFFF"></path>
                </g>
                <rect id="bound" x="0" y="0" width="16" height="16"></rect>
            </g>
        </g>
    </g>
</svg>