<svg xmlns="http://www.w3.org/2000/svg" width="16" height="16" viewBox="0 0 16 16">
  <g fill="none" fill-rule="evenodd">
    <path fill="#1D1D1D" fill-rule="nonzero" d="M4,4.92307692 C3.49019869,4.92307692 3.07692308,4.50980131 3.07692308,4 C3.07692308,3.49019869 3.49019869,3.07692308 4,3.07692308 C4.50980131,3.07692308 4.92307692,3.49019869 4.92307692,4 C4.92307692,4.50980131 4.50980131,4.92307692 4,4.92307692 L4,4.92307692 Z M13.7907692,7.74153846 L8.25230769,2.20307692 C8.03076923,1.98153846 7.72307692,1.84615385 7.38461538,1.84615385 L3.07692308,1.84615385 C2.39384615,1.84615385 1.84615385,2.39384615 1.84615385,3.07692308 L1.84615385,7.38461538 C1.84615385,7.72307692 1.98153846,8.03076923 2.20923077,8.25230769 L7.74153846,13.7907692 C7.96923077,14.0123077 8.27692308,14.1538462 8.61538462,14.1538462 C8.95384615,14.1538462 9.26153846,14.0123077 9.48307692,13.7907692 L13.7907692,9.48307692 C14.0184615,9.26153846 14.1538462,8.95384615 14.1538462,8.61538462 C14.1538462,8.27076923 14.0123077,7.96307692 13.7907692,7.74153846 Z"/>
    <rect width="16" height="16"/>
  </g>
</svg>
