<svg xmlns="http://www.w3.org/2000/svg" width="26" height="26" viewBox="0 0 26 26">
  <g fill="none" fill-rule="evenodd" transform="translate(1 1)">
    <polygon points="0 0 24 0 24 24 0 24"/>
    <path fill="#000000" fill-rule="nonzero" d="M19,3 L14.82,3 C14.4,1.84 13.3,1 12,1 C10.7,1 9.6,1.84 9.18,3 L5,3 C3.9,3 3,3.9 3,5 L3,19 C3,20.1 3.9,21 5,21 L19,21 C20.1,21 21,20.1 21,19 L21,5 C21,3.9 20.1,3 19,3 Z M12,3 C12.55,3 13,3.45 13,4 C13,4.55 12.55,5 12,5 C11.45,5 11,4.55 11,4 C11,3.45 11.45,3 12,3 Z M12,18 L7,13 L10,13 L10,9 L14,9 L14,13 L17,13 L12,18 Z"/>
  </g>
</svg>
