<svg xmlns="http://www.w3.org/2000/svg" width="16" height="16" viewBox="0 0 16 16">
  <g fill="none" fill-rule="evenodd" transform="translate(-5689 -456)">
    <path fill="#1D1D1D" d="M9.18574109,4.59287054 C9.18574109,7.11894934 4.59287054,11.0769231 4.59287054,11.0769231 C4.59287054,11.0769231 0,7.11894934 0,4.59287054 C0,2.06679174 2.06679174,0 4.59287054,0 C7.11894934,0 9.18574109,2.06679174 9.18574109,4.59287054 Z M4.59287054,5.94371482 C5.3358349,5.94371482 5.94371482,5.3358349 5.94371482,4.59287054 C5.94371482,3.84990619 5.3358349,3.24202627 4.59287054,3.24202627 C3.84990619,3.24202627 3.24202627,3.84990619 3.24202627,4.59287054 C3.24202627,5.3358349 3.84990619,5.94371482 4.59287054,5.94371482 Z" transform="translate(5691.692 458.462)"/>
    <rect width="16" height="16" x="5689" y="456"/>
  </g>
</svg>
