<svg xmlns="http://www.w3.org/2000/svg" width="151" height="230" viewBox="0 0 151 230">
  <g fill="none" transform="translate(.5)">
    <ellipse cx="76.415" cy="44.717" fill="#000000" rx="17.386" ry="17.457"/>
    <path fill="#1D1D1D" d="M117.968666,78.8699004 C120.519172,78.2104314 123.032686,77.3792257 125.45701,76.3437168 C127.881841,75.3084624 130.21723,74.0689049 132.411486,72.5932412 C135.511064,70.5089934 138.235895,67.9690708 140.532264,65.0828761 C142.828632,62.196427 144.697044,58.9639602 146.084037,55.4938606 C147.235642,52.6125 148.112078,49.5265819 148.721453,46.1887832 C149.330828,42.8509845 149.673649,39.2615597 149.75853,35.3736947 C149.806166,33.1912389 148.96799,31.1960398 147.575169,29.7346239 C146.182095,28.273208 144.233615,27.3453208 142.060389,27.2974889 C139.887922,27.2496571 137.901182,28.090531 136.44527,29.4896128 C134.989611,30.8886947 134.065034,32.8452212 134.017652,35.0279314 C133.897551,40.5408075 133.120186,45.1985619 131.665287,49.0551327 C130.210389,52.9117035 128.077956,55.9665819 125.247466,58.2752323 L125.246959,58.2754867 C125.246959,58.2759956 125.246706,58.2759956 125.246453,58.27625 L125.246199,58.2765044 C122.352365,60.6357854 118.599831,62.4055642 113.925507,63.6005973 C109.251436,64.7953761 103.656081,65.4161726 97.0763514,65.4772345 L56.7055743,65.4772345 C50.1258446,65.4161726 44.5307432,64.7953761 39.8571791,63.6005973 C35.1833615,62.4058186 31.4310811,60.6360398 28.5372466,58.2765044 C28.5369932,58.2765044 28.5369932,58.27625 28.5367399,58.27625 C28.5367399,58.2759956 28.5364865,58.2759956 28.5364865,58.2757412 C28.5364865,58.2757412 28.5364865,58.2759956 28.5367399,58.2759956 C28.5364865,58.2759956 28.5364865,58.2759956 28.5364865,58.2754867 L28.5362331,58.2752323 C25.7057432,55.9665819 23.5733108,52.9117035 22.1184122,49.0551327 C20.6635135,45.1985619 19.886402,40.5408075 19.7663007,35.0279314 C19.7186655,32.8454757 18.7943412,30.8886947 17.3384291,29.4896128 C15.8825169,28.090531 13.895777,27.2494027 11.7235642,27.2974889 C9.55008446,27.3453208 7.60160473,28.273208 6.20853041,29.7346239 C4.81570946,31.1960398 3.97778716,33.1912389 4.0254223,35.3736947 C4.11005068,39.2615597 4.453125,42.8509845 5.0625,46.1887832 C5.671875,49.5265819 6.54831081,52.6125 7.69991554,55.4938606 C9.08690878,58.9642146 10.9550676,62.1966814 13.2516892,65.0828761 C15.5480574,67.9690708 18.2728885,70.5087389 21.3724662,72.5932412 C23.566723,74.0689049 25.9018581,75.3084624 28.3261824,76.3437168 C30.7505068,77.3789712 33.2640203,78.2104314 35.8142736,78.8699004 C38.6675676,79.6072235 41.7025338,80.1738274 44.9571791,80.5722566 C48.2118243,80.9709403 51.6858953,81.2024668 55.4179054,81.2703982 L55.394848,137.957511 C53.4070946,140.363861 51.6357264,142.64427 50.0495777,144.838175 C48.4636824,147.03208 47.0632601,149.139226 45.8189189,151.199049 C43.8942568,154.384447 42.3228041,157.478761 41.0597128,160.592157 C39.7966216,163.705299 38.8421453,166.838031 38.1509291,170.100011 C37.5382601,172.991803 37.1351351,176.016405 36.9342061,179.289834 C36.733277,182.563263 36.7350507,186.085265 36.9319257,189.972622 C37.1039696,193.368175 37.4179054,196.985586 37.8210304,200.865819 C38.223902,204.746305 38.7159628,208.88885 39.2442568,213.335177 C39.3952703,214.607301 39.5490709,215.900796 39.7048986,217.22406 C39.8607264,218.547323 40.0188345,219.900354 40.1789696,221.290531 C40.3560811,222.828783 40.9041385,224.290708 41.7438345,225.557489 C42.583277,226.824524 43.7148649,227.897179 45.0587838,228.656128 C46.4556588,229.445863 48.0253378,229.85854 49.6033784,229.891361 C51.1814189,229.924181 52.7673142,229.577655 54.1966216,228.84771 C55.9829392,227.935088 57.4061655,226.486394 58.3249155,224.766228 C59.2439189,223.045553 59.6586993,221.053916 59.4286318,219.055409 C59.266723,217.647677 59.1068412,216.282179 58.9497466,214.947467 C58.792652,213.613518 58.6378378,212.311117 58.4858108,211.030597 C56.4212838,193.649314 55.171875,183.127323 57.1522804,173.92198 C59.1326858,164.716892 64.3431588,156.827942 75.1983953,144.712743 L78.5822635,144.712743 C89.4377534,156.827942 94.6484797,164.716892 96.6291385,173.92198 C98.6097973,183.127323 97.3603885,193.64906 95.2958615,211.030597 C95.1438345,212.310863 94.9892736,213.613263 94.8319257,214.947467 C94.6748311,216.282179 94.5152027,217.647677 94.3530405,219.055409 C94.0459459,221.724325 94.844848,224.26552 96.3853885,226.216449 C97.9733108,228.227677 100.326689,229.542544 102.865794,229.837168 C105.584544,230.152655 108.353716,229.277434 110.403294,227.455752 C112.128801,225.922588 113.318412,223.769392 113.60397,221.290277 C113.764105,219.899845 113.922213,218.547069 114.078041,217.223805 C114.233868,215.900542 114.387669,214.607046 114.538682,213.334923 C115.066723,208.888595 115.558784,204.746051 115.962162,200.865564 C116.365034,196.985332 116.679223,193.367666 116.851267,189.972367 C117.048142,186.085011 117.049662,182.563009 116.84924,179.28958 C116.648564,176.01615 116.245186,172.991549 115.632517,170.099757 C114.941301,166.837777 113.986571,163.705044 112.72348,160.591903 C111.460389,157.478507 109.888682,154.384192 107.964274,151.198794 C106.719679,149.138971 105.31951,147.031825 103.733361,144.83792 C102.147213,142.644015 100.375338,140.363606 98.3878378,137.957257 L98.364527,81.2701438 C102.096791,81.201958 105.571115,80.9706858 108.826014,80.5720022 C112.079899,80.1738274 115.115118,79.6074779 117.968666,78.8699004 Z"/>
    <ellipse cx="36.696" cy="36.867" fill="#FF7553" rx="3.547" ry="3.562"/>
    <path fill="#1D1D1D" d="M48.8571791,18.0376991 C56.4017736,18.0376991 62.5396115,11.8742588 62.5396115,4.29876106 C62.5396115,2.89382743 61.4052365,1.75451327 60.0058277,1.75451327 C58.6064189,1.75451327 57.4720439,2.89382743 57.4720439,4.29876106 C57.4720439,9.06871681 53.6075169,12.9492035 48.8571791,12.9492035 C47.4577703,12.9492035 46.3233953,14.0885177 46.3233953,15.4934513 C46.3233953,16.898385 47.4577703,18.0376991 48.8571791,18.0376991 Z"/>
    <ellipse cx="105.108" cy="10.15" fill="#1D1D1D" rx="3.547" ry="3.562"/>
    <ellipse cx="144.547" cy="13.562" fill="#FF7553" rx="3.547" ry="3.562"/>
    <ellipse cx="122.547" cy="141.562" fill="#FF7553" rx="3.547" ry="3.562"/>
    <path fill="#1D1D1D" d="M123.353463 48.6012389C124.752872 48.6012389 125.887247 47.4619248 125.887247 46.0569912 125.887247 44.6520575 124.752872 43.5127434 123.353463 43.5127434 118.603125 43.5127434 114.738598 39.6322566 114.738598 34.8623009 114.738598 33.4573673 113.604223 32.3180531 112.204814 32.3180531 110.805405 32.3180531 109.67103 33.4573673 109.67103 34.8623009 109.67103 42.4380531 115.809122 48.6012389 123.353463 48.6012389zM30.2407095 92.0765819C28.8413007 92.0765819 27.7069257 93.215896 27.7069257 94.6208296 27.7069257 99.3907854 23.8423986 103.271272 19.0920608 103.271272 17.692652 103.271272 16.558277 104.410586 16.558277 105.81552 16.558277 107.220454 17.692652 108.359768 19.0920608 108.359768 26.6366554 108.359768 32.7744932 102.196327 32.7744932 94.6208296 32.7744932 93.215896 31.6401182 92.0765819 30.2407095 92.0765819zM138.809291 111.698584C134.058953 111.698584 130.194426 107.818097 130.194426 103.048142 130.194426 101.643208 129.060051 100.503894 127.660642 100.503894 126.261233 100.503894 125.126858 101.643208 125.126858 103.048142 125.126858 110.623639 131.264696 116.78708 138.809291 116.78708 140.208699 116.78708 141.343074 115.647765 141.343074 114.242832 141.343074 112.837898 140.208699 111.698584 138.809291 111.698584z"/>
    <ellipse cx="145.902" cy="85.712" fill="#1D1D1D" rx="3.547" ry="3.562"/>
    <ellipse cx="8.704" cy="124.259" fill="#FF7553" rx="3.547" ry="3.562"/>
    <ellipse cx="3.636" cy="13.971" fill="#1D1D1D" rx="3.547" ry="3.562"/>
    <ellipse cx="6.797" cy="84.188" fill="#1D1D1D" rx="3.547" ry="3.562"/>
    <ellipse cx="21.374" cy="3.793" fill="#1D1D1D" rx="3.547" ry="3.562"/>
  </g>
</svg>
