<svg xmlns="http://www.w3.org/2000/svg" width="26" height="26" viewBox="0 0 26 26">
  <g fill="none" fill-rule="evenodd" transform="translate(1 1)">
    <rect width="24" height="24"/>
    <path fill="#1D1D1D" d="M13.5152288,12 L16.037963,9.47726582 C16.4612732,9.05395564 16.4590291,8.37780871 16.0406102,7.95938982 C15.6192742,7.5380538 14.9426151,7.54215612 14.5227342,7.96203701 L12,10.4847712 L9.47726582,7.96203701 C9.05395564,7.53872682 8.37780871,7.54097094 7.95938982,7.95938982 C7.5380538,8.38072585 7.54215612,9.05738494 7.96203701,9.47726582 L10.4847712,12 L7.96203701,14.5227342 C7.53872682,14.9460444 7.54097094,15.6221913 7.95938982,16.0406102 C8.38072585,16.4619462 9.05738494,16.4578439 9.47726582,16.037963 L12,13.5152288 L14.5227342,16.037963 C14.9460444,16.4612732 15.6221913,16.4590291 16.0406102,16.0406102 C16.4619462,15.6192742 16.4578439,14.9426151 16.037963,14.5227342 L13.5152288,12 Z M12,22 C6.4771525,22 2,17.5228475 2,12 C2,6.4771525 6.4771525,2 12,2 C17.5228475,2 22,6.4771525 22,12 C22,17.5228475 17.5228475,22 12,22 Z"/>
  </g>
</svg>
