<svg xmlns="http://www.w3.org/2000/svg" width="67" height="42" viewBox="0 0 67 42">
  <path fill="#CB111B" fill-rule="evenodd" d="M5661.23585,1302.25743 L5661.23585,1294.9802 L5656.04717,1294.9802 L5656.04717,1302.25743 L5648.57547,1302.25743 L5648.57547,1307.45545 L5656.04717,1307.45545 L5656.04717,1314.94059 L5661.23585,1314.94059 L5661.23585,1307.45545 L5668.5,1307.45545 L5668.5,1302.25743 L5661.23585,1302.25743 L5661.23585,1302.25743 Z M5623.46226,1301.84158 L5623.46226,1310.15842 C5623.46226,1310.15842 5631.51592,1310.1476 5634.79517,1310.1476 C5633.0194,1315.5392 5630.25819,1318.47525 5623.46226,1318.47525 C5616.58477,1318.47525 5611.21698,1312.88987 5611.21698,1306 C5611.21698,1299.11013 5616.58477,1293.52475 5623.46226,1293.52475 C5627.09849,1293.52475 5629.44689,1294.80513 5631.60102,1296.58971 C5633.32532,1294.86231 5633.18128,1294.61613 5637.56821,1290.46582 C5633.84419,1287.07006 5628.8946,1285 5623.46226,1285 C5611.88508,1285 5602.5,1294.40197 5602.5,1306 C5602.5,1317.59782 5611.88508,1327 5623.46226,1327 C5640.76692,1327 5644.99653,1311.90495 5643.59434,1301.84158 L5623.46226,1301.84158 L5623.46226,1301.84158 Z" transform="translate(-5602 -1285)"/>
</svg>
