<svg xmlns="http://www.w3.org/2000/svg" width="49" height="48" viewBox="0 0 49 48">
  <path fill="#344784" fill-rule="evenodd" d="M5628.13836,1141 L5605.14923,1141 C5603.68567,1141 5602.5,1139.81359 5602.5,1138.3506 L5602.5,1095.64921 C5602.5,1094.18585 5603.68586,1093 5605.14923,1093 L5647.85095,1093 C5649.31395,1093 5650.5,1094.18585 5650.5,1095.64921 L5650.5,1138.3506 C5650.5,1139.81378 5649.31377,1141 5647.85095,1141 L5635.61931,1141 L5635.61931,1122.41175 L5641.85852,1122.41175 L5642.79276,1115.16759 L5635.61931,1115.16759 L5635.61931,1110.54264 C5635.61931,1108.44529 5636.20171,1107.01601 5639.20929,1107.01601 L5643.04531,1107.01433 L5643.04531,1100.53509 C5642.38189,1100.44681 5640.10478,1100.24957 5637.45555,1100.24957 C5631.92483,1100.24957 5628.13836,1103.62553 5628.13836,1109.82521 L5628.13836,1115.16759 L5621.88312,1115.16759 L5621.88312,1122.41175 L5628.13836,1122.41175 L5628.13836,1141 L5628.13836,1141 Z" transform="translate(-5602 -1093)"/>
</svg>
