<svg xmlns="http://www.w3.org/2000/svg" width="49" height="48" viewBox="0 0 49 48">
  <path fill="#000000" fill-rule="evenodd" d="M5626.50005,1373 C5633.01801,1373 5633.83531,1373.02763 5636.39517,1373.14443 C5638.94969,1373.26094 5640.69434,1373.66669 5642.22091,1374.26002 C5643.79912,1374.87326 5645.13755,1375.6939 5646.47187,1377.02813 C5647.8061,1378.36245 5648.62674,1379.70088 5649.24008,1381.27909 C5649.83331,1382.80566 5650.23906,1384.55031 5650.35557,1387.10483 C5650.47237,1389.66469 5650.5,1390.48199 5650.5,1397.00005 C5650.5,1403.51801 5650.47237,1404.33531 5650.35557,1406.89517 C5650.23906,1409.44969 5649.83331,1411.19434 5649.24008,1412.72091 C5648.62674,1414.29912 5647.8061,1415.63755 5646.47187,1416.97187 C5645.13755,1418.3061 5643.79912,1419.12674 5642.22091,1419.74008 C5640.69434,1420.33331 5638.94969,1420.73906 5636.39517,1420.85557 C5633.83531,1420.97237 5633.01801,1421 5626.50005,1421 C5619.98199,1421 5619.16469,1420.97237 5616.60483,1420.85557 C5614.05031,1420.73906 5612.30566,1420.33331 5610.77909,1419.74008 C5609.20088,1419.12674 5607.86245,1418.3061 5606.52813,1416.97187 C5605.1939,1415.63755 5604.37326,1414.29912 5603.76002,1412.72091 C5603.16669,1411.19434 5602.76094,1409.44969 5602.64443,1406.89517 C5602.52763,1404.33531 5602.5,1403.51801 5602.5,1397.00005 C5602.5,1390.48199 5602.52763,1389.66469 5602.64443,1387.10483 C5602.76094,1384.55031 5603.16669,1382.80566 5603.76002,1381.27909 C5604.37326,1379.70088 5605.1939,1378.36245 5606.52813,1377.02813 C5607.86245,1375.6939 5609.20088,1374.87326 5610.77909,1374.26002 C5612.30566,1373.66669 5614.05031,1373.26094 5616.60483,1373.14443 C5619.16469,1373.02763 5619.98199,1373 5626.50005,1373 Z M5626.50005,1377.32432 C5620.09174,1377.32432 5619.33264,1377.3488 5616.80194,1377.46427 C5614.46196,1377.57097 5613.19118,1377.96195 5612.34549,1378.29062 C5611.22523,1378.726 5610.42574,1379.24607 5609.58595,1380.08595 C5608.74607,1380.92574 5608.226,1381.72523 5607.79062,1382.84549 C5607.46195,1383.69118 5607.07097,1384.96196 5606.96427,1387.30194 C5606.8488,1389.83264 5606.82432,1390.59174 5606.82432,1397.00005 C5606.82432,1403.40826 5606.8488,1404.16736 5606.96427,1406.69806 C5607.07097,1409.03804 5607.46195,1410.30882 5607.79062,1411.15451 C5608.226,1412.27477 5608.74616,1413.07426 5609.58595,1413.91405 C5610.42574,1414.75393 5611.22523,1415.274 5612.34549,1415.70938 C5613.19118,1416.03805 5614.46196,1416.42903 5616.80194,1416.53573 C5619.33236,1416.6512 5620.09126,1416.67568 5626.50005,1416.67568 C5632.90874,1416.67568 5633.66774,1416.6512 5636.19806,1416.53573 C5638.53804,1416.42903 5639.80882,1416.03805 5640.65451,1415.70938 C5641.77477,1415.274 5642.57426,1414.75393 5643.41405,1413.91405 C5644.25393,1413.07426 5644.774,1412.27477 5645.20938,1411.15451 C5645.53805,1410.30882 5645.92903,1409.03804 5646.03573,1406.69806 C5646.1512,1404.16736 5646.17568,1403.40826 5646.17568,1397.00005 C5646.17568,1390.59174 5646.1512,1389.83264 5646.03573,1387.30194 C5645.92903,1384.96196 5645.53805,1383.69118 5645.20938,1382.84549 C5644.774,1381.72523 5644.25393,1380.92574 5643.41405,1380.08595 C5642.57426,1379.24607 5641.77477,1378.726 5640.65451,1378.29062 C5639.80882,1377.96195 5638.53804,1377.57097 5636.19806,1377.46427 C5633.66736,1377.3488 5632.90826,1377.32432 5626.50005,1377.32432 Z M5626.50005,1384.67568 C5633.30658,1384.67568 5638.82432,1390.19342 5638.82432,1397.00005 C5638.82432,1403.80658 5633.30658,1409.32432 5626.50005,1409.32432 C5619.69342,1409.32432 5614.17568,1403.80658 5614.17568,1397.00005 C5614.17568,1390.19342 5619.69342,1384.67568 5626.50005,1384.67568 Z M5626.50005,1405 C5630.9183,1405 5634.5,1401.4183 5634.5,1397.00005 C5634.5,1392.5817 5630.9183,1389 5626.50005,1389 C5622.0817,1389 5618.5,1392.5817 5618.5,1397.00005 C5618.5,1401.4183 5622.0817,1405 5626.50005,1405 Z M5642.19128,1384.18877 C5642.19128,1385.77936 5640.90183,1387.06872 5639.31123,1387.06872 C5637.72073,1387.06872 5636.43128,1385.77936 5636.43128,1384.18877 C5636.43128,1382.59817 5637.72073,1381.30872 5639.31123,1381.30872 C5640.90183,1381.30872 5642.19128,1382.59817 5642.19128,1384.18877 Z" transform="translate(-5602 -1373)"/>
</svg>
