<svg xmlns="http://www.w3.org/2000/svg" width="16" height="16" viewBox="0 0 16 16">
  <g fill="none" fill-rule="evenodd">
    <rect width="16" height="16"/>
    <path fill="#1D1D1D" fill-rule="nonzero" d="M0.1290833,5.75193719 L3.0958584,0.548062807 C3.26842282,0.245376077 3.6899106,0 4.03322487,0 L9.96677513,0 C10.3119039,0 10.7324844,0.246967466 10.9041416,0.548062807 L13.8709167,5.75193719 C14.0434811,6.05462392 14.0425738,6.54696746 13.8709167,6.84806281 L10.9041416,12.0519372 C10.7315772,12.3546239 10.3100894,12.6 9.96677513,12.6 L4.03322487,12.6 C3.68809608,12.6 3.26751555,12.3530325 3.0958584,12.0519372 L0.1290833,6.84806281 C-0.0434811011,6.54537608 -0.0425738343,6.05303254 0.1290833,5.75193719 Z M7,9.36923077 C8.58154268,9.36923077 9.86363636,8.06741256 9.86363636,6.46153846 C9.86363636,4.85566436 8.58154268,3.55384615 7,3.55384615 C5.41845732,3.55384615 4.13636364,4.85566436 4.13636364,6.46153846 C4.13636364,8.06741256 5.41845732,9.36923077 7,9.36923077 L7,9.36923077 Z" transform="translate(1.56 1.56)"/>
  </g>
</svg>
