<svg xmlns="http://www.w3.org/2000/svg" width="20" height="20" viewBox="0 0 20 20">
  <g fill="none" fill-rule="evenodd">
    <path fill="#FF7553" fill-rule="nonzero" d="M16.7826087,13.3157895 L19,13.3157895 L19,14.7894737 L16.7826087,14.7894737 L16.7826087,17 L15.3043478,17 L15.3043478,14.7894737 L13.0869565,14.7894737 L13.0869565,13.3157895 L15.3043478,13.3157895 L15.3043478,11.1052632 L16.7826087,11.1052632 L16.7826087,13.3157895 L16.7826087,13.3157895 Z M15.3043478,8.89473684 L3.47826087,8.89473684 L3.47826087,13.3157895 L11.6086957,13.3157895 L11.6086957,14.7894737 L3.47826087,14.7894737 C2.65782609,14.7894737 2,14.1263158 2,13.3157895 L2,4.47368421 C2,3.65578947 2.65782609,3 3.47826087,3 L15.3043478,3 C16.1207688,3 16.7826087,3.65979089 16.7826087,4.47368421 L16.7826087,9.63157895 L15.3043478,9.63157895 L15.3043478,8.89473684 Z"/>
    <rect width="20" height="20"/>
  </g>
</svg>
