<svg xmlns="http://www.w3.org/2000/svg" width="16" height="16" viewBox="0 0 16 16">
  <g fill="none" fill-rule="evenodd" transform="translate(-5598 -507)">
    <path fill="#1D1D1D" fill-rule="nonzero" d="M4,6.33333333 L2.66666667,6.33333333 L2.66666667,7.66666667 L4,7.66666667 L4,6.33333333 Z M6.66666667,6.33333333 L5.33333333,6.33333333 L5.33333333,7.66666667 L6.66666667,7.66666667 L6.66666667,6.33333333 Z M9.33333333,6.33333333 L8,6.33333333 L8,7.66666667 L9.33333333,7.66666667 L9.33333333,6.33333333 Z M10.6666667,1.66666667 L10,1.66666667 L10,0.333333333 L8.66666667,0.333333333 L8.66666667,1.66666667 L3.33333333,1.66666667 L3.33333333,0.333333333 L2,0.333333333 L2,1.66666667 L1.33333333,1.66666667 C0.593333333,1.66666667 0.00666666667,2.26666667 0.00666666667,3 L0,12.3333333 C0,13.0666667 0.593333333,13.6666667 1.33333333,13.6666667 L10.6666667,13.6666667 C11.4,13.6666667 12,13.0666667 12,12.3333333 L12,3 C12,2.26666667 11.4,1.66666667 10.6666667,1.66666667 Z M10.6666667,12.3333333 L1.33333333,12.3333333 L1.33333333,5 L10.6666667,5 L10.6666667,12.3333333 Z" transform="translate(5600 508)"/>
    <polygon points="5598 507 5614 507 5614 523 5598 523"/>
  </g>
</svg>
