<svg xmlns="http://www.w3.org/2000/svg" width="16" height="16" viewBox="0 0 16 16">
  <g fill="none" fill-rule="evenodd">
    <rect width="16" height="16"/>
    <path fill="#000000" fill-rule="nonzero" d="M9.10869565 8.52173913C9.10869565 8.34186957 8.96247826 8.19565217 8.7826087 8.19565217L8.45652174 8.19565217 8.45652174 8.84782609 8.7826087 8.84782609C8.96247826 8.84782609 9.10869565 8.7016087 9.10869565 8.52173913zM7.80434783 6.89130435L7.47826087 6.89130435C7.2983913 6.89130435 7.15217391 7.03752174 7.15217391 7.2173913 7.15217391 7.39726087 7.2983913 7.54347826 7.47826087 7.54347826L7.80434783 7.54347826 7.80434783 6.89130435z"/>
    <path fill="#000000" fill-rule="nonzero" d="M14,7.67847826 L14,2 L8.32152174,2 L2.12586957,8.19565217 L7.80434783,13.8741304 L14,7.67847826 Z M11.8804348,3.30434783 C12.2405652,3.30434783 12.5326087,3.5963913 12.5326087,3.95652174 C12.5326087,4.31665217 12.2405652,4.60869565 11.8804348,4.60869565 C11.5203043,4.60869565 11.2282609,4.31665217 11.2282609,3.95652174 C11.2282609,3.5963913 11.5203043,3.30434783 11.8804348,3.30434783 Z M7.47826087,8.19565217 C6.93878261,8.19565217 6.5,7.75686957 6.5,7.2173913 C6.5,6.67791304 6.93878261,6.23913043 7.47826087,6.23913043 L7.80434783,6.23913043 L7.80434783,5.58695652 L8.45652174,5.58695652 L8.45652174,6.23913043 L9.43478261,6.23913043 L9.43478261,6.89130435 L8.45652174,6.89130435 L8.45652174,7.54347826 L8.7826087,7.54347826 C9.32208696,7.54347826 9.76086957,7.98226087 9.76086957,8.52173913 C9.76086957,9.06121739 9.32208696,9.5 8.7826087,9.5 L8.45652174,9.5 L8.45652174,10.1521739 L7.80434783,10.1521739 L7.80434783,9.5 L6.82608696,9.5 L6.82608696,8.84782609 L7.80434783,8.84782609 L7.80434783,8.19565217 L7.47826087,8.19565217 Z"/>
  </g>
</svg>
