<svg xmlns="http://www.w3.org/2000/svg" width="26" height="26" viewBox="0 0 26 26">
  <g fill="none" fill-rule="evenodd">
    <path fill="#1D1D1D" fill-rule="nonzero" d="M12,6 L2,6 L2,2 L12,2 L12,6 Z M9,16 C7.34314575,16 6,14.6568542 6,13 C6,11.3431458 7.34314575,10 9,10 C10.6568542,10 12,11.3431458 12,13 C12,14.6568542 10.6568542,16 9,16 L9,16 Z M14,0 L2,0 C0.89,0 0,0.9 0,2 L0,16 C0,17.1045695 0.8954305,18 2,18 L16,18 C17.1045695,18 18,17.1045695 18,16 L18,4 L14,0 Z" transform="translate(4 4)"/>
    <rect width="26" height="26"/>
  </g>
</svg>
