<svg xmlns="http://www.w3.org/2000/svg" width="26" height="26" viewBox="0 0 26 26">
  <g fill="none" fill-rule="evenodd">
    <rect width="26" height="26"/>
    <path fill="#000000" fill-rule="nonzero" d="M9,4.09090909 C7.64439198,4.09090909 6.54545455,5.18984652 6.54545455,6.54545455 C6.54545455,7.90106257 7.64439198,9 9,9 C10.355608,9 11.4545455,7.90106257 11.4545455,6.54545455 C11.4545455,5.18984652 10.355608,4.09090909 9,4.09090909 L9,4.09090909 Z M9,10.6363636 C6.7406533,10.6363636 4.90909091,8.80480125 4.90909091,6.54545455 C4.90909091,4.28610784 6.7406533,2.45454545 9,2.45454545 C11.2593467,2.45454545 13.0909091,4.28610784 13.0909091,6.54545455 C13.0909091,8.80480125 11.2593467,10.6363636 9,10.6363636 L9,10.6363636 Z M9,0.409090909 C4.90909091,0.409090909 1.41545455,2.95363636 0,6.54545455 C1.41545455,10.1372727 4.90909091,12.6818182 9,12.6818182 C13.0909091,12.6818182 16.5845455,10.1372727 18,6.54545455 C16.5845455,2.95363636 13.0909091,0.409090909 9,0.409090909 Z" transform="translate(4 6)"/>
  </g>
</svg>
