<svg xmlns="http://www.w3.org/2000/svg" width="16" height="16" viewBox="0 0 16 16">
  <g fill="none" fill-rule="evenodd">
    <polygon points="0 0 16 0 16 16 0 16"/>
    <path fill="#1D1D1D" d="M9.37367254,4.1418457 C9.67826759,4.1418457 10.0922045,4.19482422 10.42804,4.26293945 C10.5061413,4.27807617 10.5920527,4.26293945 10.6623439,4.2175293 C10.7326351,4.17211914 10.7794959,4.09643555 10.787306,4.02075195 L10.9981795,2.54492188 C11.0137997,2.40869141 10.9278883,2.26489258 10.7794959,2.22705078 C10.2327868,2.07568359 9.63921694,2 9.02221671,2 C7.15559575,2 6.24962073,2.86279297 6.24962073,4.64892578 L6.24962073,5.4284668 L5.29678492,5.4284668 C5.1327722,5.4284668 5,5.55712891 5,5.71606445 L5,7.22973633 C5,7.39624023 5.1327722,7.52490234 5.29678492,7.52490234 L6.24962073,7.52490234 L6.24962073,13.3374023 C6.24962073,13.4963379 6.38239293,13.625 6.54640565,13.625 L8.49893803,13.625 C8.65514062,13.625 8.78791282,13.4963379 8.78791282,13.3374023 L8.78791282,7.52490234 L10.365559,7.52490234 C10.5217616,7.52490234 10.6467237,7.40380859 10.6623439,7.25244141 L10.7716857,5.73876953 C10.7794959,5.65551758 10.7482553,5.57983398 10.6935844,5.51928711 C10.6389135,5.45874023 10.5608122,5.4284668 10.4827109,5.4284668 L8.78791282,5.4284668 L8.78791282,4.76245117 C8.78791282,4.26293945 8.84258373,4.1418457 9.37367254,4.1418457 L9.37367254,4.1418457 Z"/>
  </g>
</svg>
