<svg xmlns="http://www.w3.org/2000/svg" width="16" height="16" viewBox="0 0 16 16">
  <g fill="none" fill-rule="evenodd">
    <polygon points="0 0 16 0 16 16 0 16"/>
    <path fill="#000000" fill-rule="nonzero" d="M11.4733333,6 L8.55333333,1.62666667 C8.42666667,1.44 8.21333333,1.34666667 8,1.34666667 C7.78666667,1.34666667 7.57333333,1.44 7.44666667,1.63333333 L4.52666667,6 L1.33333333,6 C0.966666667,6 0.666666667,6.3 0.666666667,6.66666667 C0.666666667,6.72666667 0.673333333,6.78666667 0.693333333,6.84666667 L2.38666667,13.0266667 C2.54,13.5866667 3.05333333,14 3.66666667,14 L12.3333333,14 C12.9466667,14 13.46,13.5866667 13.62,13.0266667 L15.3133333,6.84666667 L15.3333333,6.66666667 C15.3333333,6.3 15.0333333,6 14.6666667,6 L11.4733333,6 Z M6,6 L8,3.06666667 L10,6 L6,6 Z M8,11.3333333 C7.26666667,11.3333333 6.66666667,10.7333333 6.66666667,10 C6.66666667,9.26666667 7.26666667,8.66666667 8,8.66666667 C8.73333333,8.66666667 9.33333333,9.26666667 9.33333333,10 C9.33333333,10.7333333 8.73333333,11.3333333 8,11.3333333 Z"/>
  </g>
</svg>
