<svg xmlns="http://www.w3.org/2000/svg" width="25" height="25" viewBox="0 0 25 25">
  <g fill="none" fill-rule="evenodd">
    <rect width="25" height="25"/>
    <path fill="#FFFFFF" d="M3,19.7902916 L3,7.20951637 C3.00042399,6.54110448 3.59740569,6.00038403 4.33578896,6 L11.4976614,6 L9.58884634,7.72815484 L4.90817908,7.72815484 L4.90817908,19.2716531 L17.0916089,19.2720372 L17.0916089,16.9507412 L19,15.2225863 C19,15.2225863 18.9998884,16.4244534 18.9998327,17.0253869 C18.9997471,17.9470218 18.999576,19.7902916 18.999576,19.7902916 C18.99894,20.4583195 18.4021703,20.9992319 17.663999,21 L4.33578896,20.999616 C3.59761769,20.9992319 3.00042399,20.4587035 3,19.7902916 Z M16.8522167,6.24815631 L16.8522167,4 L23,9.81882771 L16.8259442,15.6625222 L16.8259442,13.3250444 C16.8259442,13.3250444 13.204532,13.0879147 10.6079606,14.609762 C8.88258785,15.6211439 7.85375369,16.6323268 7,18 C7,18 7.23309031,14.3694494 9.43998686,11.062167 C12.1992381,6.92751687 16.8522167,6.24815631 16.8522167,6.24815631 Z"/>
  </g>
</svg>
