<svg xmlns="http://www.w3.org/2000/svg" width="22" height="22" viewBox="0 0 22 22">
  <g fill="none" fill-rule="evenodd" transform="translate(1 1)">
    <ellipse cx="10" cy="10" fill="#00A0FF" rx="10" ry="10"/>
    <g transform="translate(3 3)">
      <path fill="#FFFFFF" d="M5,7.3115942 L7.25603865,7.3115942 L7.25603865,5.64492754 L5,5.64492754 L5,3.36956522 L3.33333333,3.36956522 L3.33333333,5.64492754 L3.29951691,5.64492754 L3.29951691,7.3115942 L3.33333333,7.3115942 L3.33333333,7.32608696 L5,7.32608696 L5,7.3115942 Z M10,5.91304348 C10,8.72281285 7.76086957,11 5,11 C2.23782609,11 0,8.72281285 0,5.91304348 C0,3.1032741 2.23782609,0.826086957 5,0.826086957 C7.76086957,0.826086957 10,3.1032741 10,5.91304348 Z" transform="translate(2 1)"/>
      <rect width="14" height="14"/>
    </g>
  </g>
</svg>
