<svg xmlns="http://www.w3.org/2000/svg" width="16" height="16" viewBox="0 0 16 16">
  <g fill="none" fill-rule="evenodd">
    <rect width="16" height="16"/>
    <path fill="#1D1D1D" fill-rule="nonzero" d="M9.23076923,8.66461538 C8.76307692,8.66461538 8.34461538,8.84923077 8.02461538,9.13846154 L3.63692308,6.58461538 C3.66769231,6.44307692 3.69230769,6.30153846 3.69230769,6.15384615 C3.69230769,6.00615385 3.66769231,5.86461538 3.63692308,5.72307692 L7.97538462,3.19384615 C8.30769231,3.50153846 8.74461538,3.69230769 9.23076923,3.69230769 C10.2503718,3.69230769 11.0769231,2.86575646 11.0769231,1.84615385 C11.0769231,0.826551231 10.2503718,0 9.23076923,0 C8.21116662,0 7.38461538,0.826551231 7.38461538,1.84615385 C7.38461538,1.99384615 7.40923077,2.13538462 7.44,2.27692308 L3.10153846,4.80615385 C2.76923077,4.49846154 2.33230769,4.30769231 1.84615385,4.30769231 C0.826551231,4.30769231 0,5.13424354 0,6.15384615 C0,7.17344877 0.826551231,8 1.84615385,8 C2.33230769,8 2.76923077,7.80923077 3.10153846,7.50153846 L7.48307692,10.0553846 C7.45230769,10.1846154 7.43384615,10.32 7.43384615,10.4615385 C7.43384615,11.4523077 8.24,12.2523077 9.23076923,12.2523077 C10.2215385,12.2523077 11.0276923,11.4523077 11.0276923,10.4615385 C11.0276923,9.46912525 10.2231824,8.66461538 9.23076923,8.66461538 Z" transform="translate(2.462 1.846)"/>
  </g>
</svg>
