<svg xmlns="http://www.w3.org/2000/svg" width="104" height="54" viewBox="0 0 104 54">
  <g fill="#1D1D1D" transform="translate(0 -4)">
    <path d="M25.4073169,24.822069 C31.2196618,19.0354529 32.5824114,-1.91846539e-13 32.5824114,-1.91846539e-13 C32.5824114,-1.91846539e-13 28.6365226,2.0489589 22.3328667,2.58766637 C16.3886791,3.09607154 10.8835914,3.93106812 7.65776629,7.14385961 C2.67929793,12.1033352 1.43336617,19.1618995 4.26704395,24.150181 C7.38619298,19.2756266 20.2113645,12.3203146 20.2113645,12.3203146 C11.0060436,18.8768335 6.31567579,23.9612593 -1.17950094e-12,32.9217602 L3.09698745,33.7474042 C3.09698745,33.7474042 5.40254341,29.600479 7.40685208,27.5971606 C12.437156,31.1518817 20.1103227,30.0995317 25.4073169,24.822069 Z" transform="rotate(7 34.65 582.07)"/>
    <path d="M8.57764892,8.52333577 C10.5399283,6.53634299 11,-6.83897383e-14 11,-6.83897383e-14 C11,-6.83897383e-14 9.6678464,0.703566035 7.53969773,0.888545967 C5.53290755,1.06312078 3.67435989,1.34983967 2.58530371,2.45303944 C0.904545612,4.15601094 0.483912247,6.57976189 1.44057734,8.29262468 C2.49361908,6.61881321 6.82346702,4.23051675 6.82346702,4.23051675 C3.7157004,6.48187668 2.13220663,8.22775325 -1.77635684e-13,11.3045861 L1.04555987,11.5880936 C1.04555987,11.5880936 1.82392816,10.1641335 2.50059371,9.47623933 C4.19885178,10.69685 6.78935476,10.3354968 8.57764892,8.52333577 Z" transform="rotate(-97 29.905 1.344)"/>
    <path d="M8.57764892,8.52333577 C10.5399283,6.53634299 11,5.95079541e-14 11,5.95079541e-14 C11,5.95079541e-14 9.6678464,0.703566035 7.53969773,0.888545967 C5.53290755,1.06312078 3.67435989,1.34983967 2.58530371,2.45303944 C0.904545612,4.15601094 0.483912247,6.57976189 1.44057734,8.29262468 C2.49361908,6.61881321 6.82346702,4.23051675 6.82346702,4.23051675 C3.7157004,6.48187668 2.13220663,8.22775325 -2.62900812e-13,11.3045861 L1.04555987,11.5880936 C1.04555987,11.5880936 1.82392816,10.1641335 2.50059371,9.47623933 C4.19885178,10.69685 6.78935476,10.3354968 8.57764892,8.52333577 Z" transform="rotate(-175 7.004 28.978)"/>
  </g>
</svg>
