<svg xmlns="http://www.w3.org/2000/svg" width="49" height="40" viewBox="0 0 49 40">
  <path fill="#007BBF" fill-rule="evenodd" d="M5650.5,1201.73528 C5648.73631,1202.53846 5646.83738,1203.08162 5644.84548,1203.3243 C5646.87964,1202.0762 5648.44048,1200.09715 5649.17582,1197.73962 C5647.27126,1198.89527 5645.16667,1199.73601 5642.91838,1200.18671 C5641.12652,1198.22499 5638.5655,1197 5635.7312,1197 C5630.29644,1197 5625.88722,1201.52149 5625.88722,1207.09751 C5625.88722,1207.88913 5625.97174,1208.65764 5626.14078,1209.39726 C5617.95624,1208.97544 5610.70144,1204.95955 5605.84143,1198.84326 C5604.9934,1200.33983 5604.5088,1202.0762 5604.5088,1203.92524 C5604.5088,1207.42687 5606.24714,1210.51824 5608.88986,1212.32972 C5607.27831,1212.28061 5605.75691,1211.82124 5604.4271,1211.07006 L5604.4271,1211.19429 C5604.4271,1216.08848 5607.82206,1220.17082 5612.3299,1221.09534 C5611.5044,1221.33225 5610.63383,1221.4507 5609.73508,1221.4507 C5609.10116,1221.4507 5608.48133,1221.39003 5607.88123,1221.27158 C5609.13497,1225.28169 5612.76941,1228.2026 5617.08003,1228.28061 C5613.71042,1230.99061 5609.46179,1232.60563 5604.84971,1232.60563 C5604.0552,1232.60563 5603.26915,1232.55941 5602.5,1232.46696 C5606.85851,1235.32719 5612.03689,1237 5617.59562,1237 C5635.71148,1237 5645.61463,1221.61538 5645.61463,1208.27049 C5645.61463,1207.83135 5645.60618,1207.3922 5645.58928,1206.96172 C5647.51356,1205.53738 5649.18428,1203.76056 5650.5,1201.73528" transform="translate(-5602 -1197)"/>
</svg>
