<svg xmlns="http://www.w3.org/2000/svg" width="45" height="40" viewBox="0 0 45 40">
  <path fill="#006DA1" fill-rule="evenodd" d="M5646.5,1501 L5636.7754,1501 L5636.7754,1486.9384 C5636.7754,1483.2578 5635.25423,1480.74515 5631.90922,1480.74515 C5629.35066,1480.74515 5627.9278,1482.44074 5627.26552,1484.07485 C5627.01717,1484.66139 5627.05597,1485.47845 5627.05597,1486.29551 L5627.05597,1501 L5617.42192,1501 C5617.42192,1501 5617.5461,1476.09125 5617.42192,1473.82705 L5627.05597,1473.82705 L5627.05597,1478.09163 C5627.62512,1476.227 5630.70367,1473.56579 5635.61642,1473.56579 C5641.71143,1473.56579 5646.5,1477.47435 5646.5,1485.89082 L5646.5,1501 L5646.5,1501 Z M5607.67921,1470.42819 L5607.61712,1470.42819 C5604.5127,1470.42819 5602.5,1468.35096 5602.5,1465.71794 C5602.5,1463.03368 5604.5722,1461 5607.73871,1461 C5610.90263,1461 5612.84807,1463.02856 5612.91016,1465.71025 C5612.91016,1468.34328 5610.90263,1470.42819 5607.67921,1470.42819 L5607.67921,1470.42819 L5607.67921,1470.42819 Z M5603.60983,1473.82705 L5612.18579,1473.82705 L5612.18579,1501 L5603.60983,1501 L5603.60983,1473.82705 L5603.60983,1473.82705 Z" transform="translate(-5602 -1461)"/>
</svg>
