<svg xmlns="http://www.w3.org/2000/svg" width="16" height="16" viewBox="0 0 16 16">
  <g fill="none" fill-rule="evenodd">
    <rect width="16" height="16"/>
    <path fill="#000000" fill-rule="nonzero" d="M1.2,0 C0.5372583,0 0,0.5372583 0,1.2 L0,3.6 C0.666,3.6 1.2,4.14 1.2,4.8 C1.2,5.4627417 0.6627417,6 0,6 L0,8.4 C0,9.0627417 0.5372583,9.6 1.2,9.6 L10.8,9.6 C11.4627417,9.6 12,9.0627417 12,8.4 L12,6 C11.3372583,6 10.8,5.4627417 10.8,4.8 C10.8,4.134 11.34,3.6 12,3.6 L12,1.2 C12,0.534 11.46,0 10.8,0 L1.2,0 L1.2,0 Z M8.1,1.8 L9,2.7 L3.9,7.8 L3,6.9 L8.1,1.8 L8.1,1.8 Z M4.086,1.824 C4.674,1.824 5.148,2.298 5.148,2.886 C5.148,3.4725264 4.6725264,3.948 4.086,3.948 C3.498,3.948 3.024,3.474 3.024,2.886 C3.024,2.2994736 3.4994736,1.824 4.086,1.824 L4.086,1.824 Z M7.914,5.652 C8.502,5.652 8.976,6.126 8.976,6.714 C8.976,7.3005264 8.5005264,7.776 7.914,7.776 C7.326,7.776 6.852,7.302 6.852,6.714 C6.852,6.1274736 7.3274736,5.652 7.914,5.652 L7.914,5.652 Z" transform="translate(2 3)"/>
  </g>
</svg>
