<svg xmlns="http://www.w3.org/2000/svg" width="16" height="16" viewBox="0 0 16 16">
  <g fill="none" fill-rule="evenodd" transform="translate(0 -.68)">
    <g fill="#1D1D1D" transform="translate(3 2)">
      <path d="M0,4.48 L10,4.48 L10,12.48 L0,12.48 L0,4.48 Z M5,10.08 C5.92047458,10.08 6.66666667,9.3636556 6.66666667,8.48 C6.66666667,7.5963444 5.92047458,6.88 5,6.88 C4.07952542,6.88 3.33333333,7.5963444 3.33333333,8.48 C3.33333333,9.3636556 4.07952542,10.08 5,10.08 Z"/>
      <path fill-rule="nonzero" d="M1.57894737,9 L1.57894737,4.88571429 C1.57894737,3.00526945 3.09092857,1.54285714 5,1.54285714 C6.90907143,1.54285714 8.42105263,3.00526945 8.42105263,4.88571429 L8.42105263,9 L10,9 L10,4.88571429 C10,2.14962649 7.77751129,0 5,0 C2.22248871,0 0,2.14962649 0,4.88571429 L0,9 L1.57894737,9 Z"/>
    </g>
    <rect width="16" height="16" y=".48"/>
  </g>
</svg>
